<svg xmlns="http://www.w3.org/2000/svg" xmlns:xlink="http://www.w3.org/1999/xlink" width="144" height="101" viewBox="0 0 144 101">
  <defs>
    <clipPath id="clip-path">
      <path id="Path_24" data-name="Path 24" d="M48.964,104.934s3.217-6.323,2.609-11.746c-1.9-16.979,3.1-20.31,1.141-30.667a27.13,27.13,0,0,0-4.145-10.669c-4.8-6.543-14.026-9.942-22.051-8.4a32.12,32.12,0,0,0-8.986,3.532C7.542,52.286,5.466,63.487,6.764,72.928c.575,4.179,4.168,10.692,3.642,14.883-1.1,8.736-.789,13.465,1.939,19.1,2.324,4.8,11.371,8.421,21.262,7.393,1.685-.176,11.77-1.943,15.357-9.37Z" clip-rule="evenodd"/>
    </clipPath>
  </defs>
  <g id="_10" data-name="10" transform="translate(0 -26)">
    <rect id="_1" width="144" height="101" transform="translate(0 26)" fill="none"/>
    <g id="_11">
      <g id="Group_6" data-name="Group 6">
        <path id="Path_10" data-name="Path 10" d="M10.052,59.825c-.117-.7-1.553-1.774-2.149-2.017-7.257-2.955-4.713,5.366-.488,5.037" fill="#61e0ee" fill-rule="evenodd"/>
        <path id="Path_11" data-name="Path 11" d="M5.3,56.6h.123l.031,0h.032l.031,0,.032,0,.032,0,.032,0,.032,0,.033,0,.032,0,.033,0,.033,0,.034,0,.065.008.068.009.068.01.068.011.069.012.07.012.071.014.071.014.073.015.072.017.074.017.074.018.075.019.076.02.076.02.077.022.078.023.079.024.079.024.08.026L7.353,57l.082.028.083.029.083.029.084.031.085.031.086.033.086.033.088.035.09.036.037.016.04.017.039.019.04.019.041.02.04.021.041.022.042.023.042.024.042.025.043.025.044.026.043.027.045.028.044.029.045.03.046.03.045.031.046.032.046.032.047.033.046.034.047.034.047.035.046.036.047.036.047.037.046.037.047.038.046.038.047.039.045.039.046.04.045.04.045.04.045.041.044.042.043.041.044.042.042.043.042.043.041.043.041.043.039.044.02.022.02.023.019.022.019.022.019.023.018.022.019.023.018.023.018.023.018.023.017.023.017.023.017.024.017.023.016.024.017.024.016.024.015.024.015.024.016.025.014.025.015.025.014.025.014.025.013.026.013.026.013.026.012.027.012.026.011.028.011.027.011.028.01.028.01.029.009.029.008.03.008.03.007.03.006.031.005.024.005.039,0,.038v.039l0,.039-.005.039-.007.038-.011.038-.012.036-.016.036-.017.035-.02.033-.022.032-.025.031-.026.028-.028.027-.03.025-.032.023-.033.02-.034.018-.036.016-.037.014-.037.01-.038.009-.039.005-.038,0h-.039l-.039,0-.039-.005-.038-.007-.038-.011-.036-.012-.036-.016-.035-.017-.033-.02-.032-.022-.031-.025-.029-.026L9.625,60.2l-.025-.03-.023-.032-.02-.033-.019-.035-.015-.035L9.509,60l-.01-.037-.009-.038V59.9l0-.006,0-.006,0-.007,0-.008,0-.008,0-.009,0-.009-.005-.01-.005-.01-.005-.011L9.441,59.8l-.007-.011-.007-.012-.007-.012-.007-.013L9.4,59.744,9.4,59.731l-.009-.014L9.378,59.7l-.01-.014-.01-.014-.01-.015-.011-.014-.011-.015-.011-.015L9.3,59.6l-.012-.015-.013-.016-.013-.015-.013-.016-.013-.016-.014-.016-.014-.016L9.2,59.477l-.03-.034-.031-.033L9.1,59.377l-.033-.033-.033-.033L9,59.277l-.035-.033-.035-.034L8.9,59.177l-.037-.034-.037-.033-.038-.033-.039-.033-.039-.033-.039-.032-.039-.032-.04-.031-.039-.032-.04-.03-.04-.03-.039-.03-.04-.029-.039-.029-.04-.028-.038-.027-.039-.027L8.2,58.628,8.159,58.6l-.037-.024-.036-.024-.036-.022-.035-.022L7.98,58.49l-.033-.02-.032-.018-.031-.018-.031-.017L7.825,58.4,7.8,58.388l-.025-.013-.024-.012-.022-.01-.02-.009-.02-.008L7.607,58.3l-.08-.032-.079-.03-.078-.03-.078-.029-.076-.027-.075-.027L7.067,58.1l-.073-.024-.073-.024-.071-.023-.07-.022-.07-.02-.068-.02-.068-.019-.066-.019-.066-.017L6.377,57.9l-.063-.016-.063-.014-.062-.014-.06-.013-.06-.012-.059-.011-.058-.011L5.9,57.8l-.056-.009-.055-.008-.054-.007-.054-.007-.025,0-.026,0-.026,0-.025,0-.026,0-.025,0-.024,0-.025,0-.024,0H5.074l-.02,0h-.02l-.019,0-.02,0-.019,0-.018,0-.019,0-.018,0-.018,0-.018,0-.018,0-.017,0-.018,0-.017,0-.016,0-.017,0-.016,0-.016,0-.016,0-.016,0-.015,0-.015,0-.015,0-.015,0-.015,0-.014.005-.014,0-.014,0-.014.005-.013.005-.014,0-.013.005-.013.005-.012.005-.013.005-.012.005-.012.005-.012.006-.012.005-.011.005-.012.006-.011.006-.011.005-.011.006-.011.006-.01.005-.01.006-.011.006-.01.006-.01.006-.009.006-.01.006-.009.007-.009.006-.01.006-.009.007-.008.006L4.27,58l-.009.006-.008.007-.008.007-.008.006-.008.007-.008.007-.008.007-.008.007-.007.007-.008.007-.007.007-.007.007-.007.008-.007.007-.007.007-.007.008-.007.008-.006.007-.007.008-.006.008-.007.007-.006.008-.006.008-.006.008-.006.009-.006.008-.006.008-.005.009-.006.008-.005.009-.006.008-.005.009-.006.009-.005.009-.005.009-.005.009-.005.009-.005.009,0,.01-.005.009-.005.01,0,.009L4,58.346l0,.009-.009.021-.008.02-.008.021-.007.022-.007.021-.007.022-.007.023-.006.023-.006.023-.005.024-.005.024-.005.024,0,.025,0,.026,0,.026,0,.026,0,.026,0,.027,0,.027v.231l0,.031,0,.03,0,.031,0,.031,0,.032,0,.031.005.032.005.032.006.033.006.032.006.033.007.033.008.033.007.033.009.034.008.033.01.034L4,59.619l.01.034.011.034.011.034.011.035.012.034.012.035.013.034.013.035.014.034.014.035L4.133,60l.015.034.015.035.016.035.016.035.017.034.017.035.017.035.018.035.018.034.018.035.019.034.02.034.019.035.02.034.021.034.021.034.021.034.022.034.021.033.023.034.022.033.024.033.023.033.024.033.024.033.024.032.025.032.025.032.025.032.026.032.026.031.027.031.026.031.027.031.028.03.027.03.028.03.028.03L5,61.283l.029.029.029.029.029.028.03.028.03.028.03.027.03.027.031.027.031.026.031.026.032.026.031.025.032.025.032.024.033.025.032.023.033.024.033.023.033.022.034.022.033.022.034.021.034.021.034.02.035.02.034.02.035.019.035.018.035.018.035.018L6,62.011l.035.017.036.016.036.016.036.015.036.014.037.015.036.013.037.014.037.012.036.012.038.012.037.011.037.011.038.01.037.009.038.009.038.009.038.008.038.007.038.007.039.006.038.006.04.005.018,0,.02,0,.019,0,.02,0,.019,0h.02l.019,0H7.35l.022,0,.039,0,.039,0,.039,0,.038.007.038.009.038.011.036.014.035.017.034.019.033.021.031.023.029.026.028.027.026.029.024.031.021.033.019.034.017.035.015.036.012.037.009.038.007.038,0,.039,0,.039v.039l0,.038-.006.039L7.965,63l-.012.037-.014.036-.017.035-.019.034-.021.033-.023.031-.026.03-.027.027-.029.026-.031.024-.032.021-.034.02-.035.017-.037.014-.037.012-.037.009-.039.007-.038.005-.027,0H7.4l-.03,0-.029,0H7l-.028,0H6.94l-.028,0-.028,0-.029,0-.028,0-.028,0-.028,0-.028,0-.029,0-.055-.008L6.6,63.381l-.055-.009-.055-.009-.055-.011-.054-.011-.054-.012-.054-.013L6.224,63.3l-.053-.015-.053-.015-.053-.015-.052-.017-.052-.017-.051-.018-.051-.018-.051-.019-.051-.02-.05-.02-.05-.021-.05-.022-.049-.022-.049-.023-.048-.024-.048-.024-.048-.024-.047-.025-.047-.026-.047-.026-.046-.027-.046-.027-.046-.028-.045-.029L5,62.752l-.044-.029-.044-.03-.044-.03-.043-.031L4.778,62.6l-.043-.032-.042-.032L4.652,62.5l-.042-.033-.041-.034-.04-.034-.04-.034-.04-.034L4.41,62.3l-.039-.036-.039-.035-.038-.037-.038-.036-.037-.037-.037-.037-.036-.037-.037-.038-.035-.038-.036-.039L4,61.893l-.035-.039-.034-.04L3.9,61.775l-.033-.04-.033-.04L3.8,61.654l-.031-.04-.032-.041-.031-.042-.03-.041-.03-.042-.03-.041-.029-.043-.029-.042-.029-.042-.027-.043-.028-.043-.027-.043-.026-.043L3.4,61.064l-.026-.043-.025-.044-.025-.044L3.3,60.889l-.024-.044L3.251,60.8l-.023-.044-.022-.045-.022-.045-.021-.045-.021-.045-.021-.045L3.1,60.486l-.02-.045-.019-.046-.018-.045L3.027,60.3l-.017-.045-.017-.046-.016-.046-.016-.046-.015-.046-.015-.046-.014-.046L2.9,59.937l-.013-.046-.013-.046L2.865,59.8l-.011-.047-.011-.046-.01-.046-.01-.046-.009-.047-.009-.046L2.8,59.475l-.007-.046-.007-.047-.007-.046-.005-.046-.005-.046,0-.047,0-.046,0-.046,0-.046V58.83l0-.046,0-.046,0-.045,0-.046.005-.045.005-.045.006-.045.007-.045.008-.045.008-.045.009-.044.01-.045.011-.044.012-.044.013-.044.013-.043.014-.044.016-.043.016-.042.017-.043.017-.041.01-.022.01-.021.009-.021.01-.02L3,57.795l.01-.021.011-.02.011-.02.011-.021.011-.02.012-.02.012-.02.012-.019.012-.02.013-.02.013-.019.013-.019.013-.02.014-.019L3.18,57.5l.014-.018.014-.019.014-.018.015-.019.015-.018.015-.018.016-.018.016-.018.015-.017.017-.017.016-.018.017-.017.016-.017L3.4,57.25l.017-.017.017-.016L3.45,57.2l.018-.016.018-.016.019-.016.018-.015.019-.015.019-.015.019-.015.02-.014.019-.015.02-.014.02-.014.021-.014.02-.013.021-.014.021-.013.021-.013.021-.012.021-.013.022-.012.022-.012.022-.012.022-.012.022-.011.023-.011.022-.011.023-.011.023-.01.024-.01.023-.01.024-.01L4.1,56.8l.024-.009.024-.009.025-.009.024-.009.024-.008.025-.009.025-.008.025-.007.025-.008.026-.007.025-.007L4.4,56.7l.026-.007.026-.006.026-.007L4.5,56.68l.026-.006.027-.006.027-.005.027-.005.027-.005.027-.005.027,0,.028,0,.027,0,.028,0,.028,0,.028,0,.028,0,.029,0,.028,0,.029,0,.029,0,.028,0,.03,0h.029l.029,0H5.3Z" fill-rule="evenodd"/>
        <path id="Path_12" data-name="Path 12" d="M50.14,82.9s4.848,4.111,4.336,7.91-3.813,4.127-4.544,1.292-1.663-5.435-3.753-6.508.927-5.318,3.961-2.694Z" fill="#d6c295" stroke="#000" stroke-linecap="round" stroke-linejoin="round" stroke-miterlimit="1.5" stroke-width="0.86" fill-rule="evenodd"/>
        <path id="Path_13" data-name="Path 13" d="M36.077,40.717s-2.976-3.1-4.092,4.464" fill="none" stroke="#61e0ee" stroke-linecap="round" stroke-linejoin="round" stroke-miterlimit="1.5" stroke-width="0.86" fill-rule="evenodd"/>
        <path id="Path_14" data-name="Path 14" d="M25.784,39.972S28.636,37,29.628,44.809" fill="none" stroke="#61e0ee" stroke-linecap="round" stroke-linejoin="round" stroke-miterlimit="1.5" stroke-width="0.86" fill-rule="evenodd"/>
        <path id="Path_15" data-name="Path 15" d="M33.556,37.463s-3.348-2.135-2.731,6.5" fill="none" stroke="#61e0ee" stroke-linecap="round" stroke-linejoin="round" stroke-miterlimit="1.5" stroke-width="0.86" fill-rule="evenodd"/>
        <path id="Path_16" data-name="Path 16" d="M43.592,113.975s-.347-6.347-3.684-8.234-5.592.546-3.774,2.84,3.326,4.609,2.919,6.923,4.8,2.474,4.539-1.529Z" fill="#d6c295" stroke="#000" stroke-linecap="round" stroke-linejoin="round" stroke-miterlimit="1.5" stroke-width="0.86" fill-rule="evenodd"/>
        <path id="Path_17" data-name="Path 17" d="M14.881,114.714s3.36-5.4,1.711-8.858-4.892-2.763-4.721.159.078,5.684-1.585,7.345,2.508,4.779,4.6,1.354Z" fill="#d6c295" stroke="#000" stroke-linecap="round" stroke-linejoin="round" stroke-miterlimit="1.5" stroke-width="0.86" fill-rule="evenodd"/>
        <path id="Path_18" data-name="Path 18" d="M49.367,54.358a2.084,2.084,0,0,0,1.892-.565c6.188-4.806-2.268-6.732-4.1-2.909" fill="#61e0ee" fill-rule="evenodd"/>
        <path id="Path_19" data-name="Path 19" d="M50.857,48.286h.1l.05,0,.05,0,.049,0,.05,0,.049,0,.05.005.049,0,.049.005.049.006.048.006.049.007.048.007.048.008.048.008.048.008.047.009.048.01.047.01.046.01.047.011.046.012.047.012.046.012.045.013.046.014.045.014.045.014.044.015.044.016.044.016.044.016.043.017.043.018.043.018.043.019.042.019.041.019.042.021.041.02.04.022.041.021.04.023.039.023.039.023.039.024.038.025.038.025.037.026.037.027.037.027.036.027.035.029.035.029.034.029.034.03.034.031.032.031.033.032.031.033.031.033.03.034.03.035.029.035.028.036.027.035.014.02.013.018.013.019.013.019.013.019.013.02.012.019.012.02.012.019.011.02.012.02.011.021.011.02.011.02.011.021.01.021.01.021.01.021.01.021.009.021.009.022.009.021.009.022.008.022.009.022.007.022.008.023.008.022.007.023.007.022.006.023.007.023.006.023.006.023.005.023.006.023.005.024.005.023,0,.024,0,.023,0,.024,0,.024,0,.024,0,.024,0,.024,0,.024,0,.024,0,.025,0,.024v.222l0,.025v.025l0,.025,0,.025,0,.025,0,.025,0,.026,0,.025,0,.025,0,.025,0,.026,0,.025-.005.025-.005.026-.005.025-.005.026L54,51.187,54,51.213l-.006.025-.007.026-.006.025-.007.026-.008.025-.007.026-.008.026-.008.025-.008.026-.009.026-.008.025-.009.026-.01.026-.009.026-.01.026-.01.025-.011.026-.011.026-.011.026-.011.026-.011.026-.012.026-.012.026-.012.025-.013.026-.013.026-.013.027-.013.026-.014.026-.013.026-.015.026-.014.026-.015.026-.015.026-.015.027-.015.026-.016.026-.016.026-.016.027-.017.026-.017.026-.017.027-.017.026-.017.027-.018.026-.018.027-.019.026-.019.027-.019.026-.019.028-.039.052-.04.054-.042.054-.042.053-.044.054-.045.054-.046.054-.047.055L52.969,53l-.049.055-.051.055-.051.055-.053.055-.054.055-.055.056-.056.056-.058.056-.058.056-.06.056-.061.056-.062.057-.064.057-.065.057-.066.057-.067.057-.068.058-.07.058-.071.058-.072.058-.074.058-.075.059-.052.04-.028.021-.028.021-.028.02-.028.021-.029.021-.029.02-.03.021-.03.02-.03.021-.031.02-.031.02-.031.02-.032.02-.032.02-.033.02-.033.019-.033.02-.034.019-.034.018-.034.019L50.9,54.7l-.035.018-.036.018-.036.017-.036.017-.037.016-.037.016-.037.016-.038.015-.039.015-.038.014-.039.014-.04.013-.04.013-.04.012-.041.011-.041.011-.041.01-.042.009-.042.009-.043.008-.043.006-.043.007L50,54.993l-.043,0-.023,0h-.25l-.023,0-.023,0-.023,0-.024,0-.023,0-.023,0-.024,0-.023,0-.023,0-.024-.005-.023,0-.024-.005-.023-.006-.023-.005-.024-.006-.023-.007-.024-.007-.023-.007-.023-.007-.024-.008L49.19,54.9l-.019-.007-.035-.014-.034-.016-.032-.019-.031-.02-.03-.023-.028-.024-.027-.026-.025-.028-.023-.03-.021-.03-.019-.033L48.85,54.6l-.015-.034-.012-.036-.01-.035-.008-.037-.005-.037,0-.037v-.038l0-.037.005-.037.007-.036.009-.037.012-.035.014-.035.016-.033.018-.033.021-.031.022-.03.025-.028.026-.027L49,53.921l.029-.023.031-.021.032-.019.033-.017.035-.015.035-.012.036-.01.036-.008.037-.005.038,0h.037l.037,0,.037.005.037.007.036.009.035.012.012,0,.008,0,.008,0,.008,0,.008,0,.008,0,.008,0,.008,0,.008,0,.008,0,.009,0h.008l.008,0h.008l.008,0h.166l.021,0,.019,0,.02,0,.02,0,.02,0,.021,0,.021,0,.021-.005.021-.006.022-.006.022-.006.022-.007.022-.008.022-.008.023-.008.023-.009.023-.009.023-.01.023-.01.023-.01.024-.011.023-.012.024-.011.023-.012.024-.013.024-.012.023-.013.024-.014.024-.013.023-.014.024-.015.023-.014.024-.015.023-.015.024-.015.023-.016.023-.015.023-.016.023-.016.023-.016.022-.016.023-.016.022-.017.022-.016.021-.016.045-.035.068-.053.068-.053.066-.054.064-.052.064-.053.062-.052.061-.052.059-.051.058-.051.057-.051.055-.051.054-.05.053-.049.052-.05.05-.048.049-.049.048-.048.046-.048.046-.047.044-.047.042-.047.042-.046.04-.046.04-.045.038-.045.037-.044.035-.044.035-.044.033-.043.032-.043.032-.043.014-.02.015-.021.015-.021.014-.02.014-.021.014-.02.013-.02.013-.02.013-.02.013-.02.012-.02.013-.02.011-.019.012-.02.011-.019.011-.019.011-.019.011-.019.01-.019.01-.018.01-.019.01-.018.009-.018.009-.018.009-.018.008-.018.009-.018.008-.017.008-.018.007-.017.008-.017.007-.017.007-.017.007-.017.006-.016.007-.017.006-.016.006-.016.005-.016.006-.016.005-.016.005-.016.005-.015,0-.015.005-.016,0-.015,0-.015,0-.014,0-.015,0-.015,0-.014,0-.014,0-.014,0-.014,0-.014,0-.014,0-.013,0-.014,0-.013v-.013l0-.013v-.013l0-.013v-.21l0-.011v-.021l0-.01,0-.011,0-.01,0-.01,0-.01,0-.01,0-.01,0-.01,0-.01,0-.009,0-.01,0-.01,0-.009,0-.01,0-.009,0-.01,0-.009,0-.009,0-.01,0-.009,0-.009,0-.009,0-.009,0-.01-.005-.009,0-.009,0-.009-.005-.008-.005-.009-.005-.009-.005-.009-.005-.009-.005-.009-.005-.008-.005-.009-.006-.009-.006-.009-.005-.008-.006-.009-.006-.009-.006-.008-.006-.008-.014-.018-.013-.017-.014-.017-.014-.017-.015-.017-.016-.017-.016-.016-.017-.017-.017-.016-.017-.016-.019-.017-.018-.016-.02-.016-.02-.016L52.5,49.9l-.021-.016-.021-.015-.022-.015-.023-.015-.023-.015-.024-.015-.024-.015-.024-.014-.025-.014-.026-.014-.026-.014-.027-.013-.027-.013-.027-.013-.028-.013-.029-.012-.029-.013-.029-.012-.03-.011-.03-.012-.031-.011L51.92,49.6l-.031-.01-.032-.011-.032-.01-.033-.009-.033-.01-.033-.009-.034-.008-.034-.009-.034-.008-.035-.008-.035-.007-.035-.007-.036-.007-.036-.006-.036-.007-.036-.005-.037-.006-.037-.005-.037-.005-.037,0-.038,0-.038,0-.038,0-.038,0-.038,0-.039,0-.039,0-.039,0H50.6l-.04,0-.04,0-.04,0-.041,0-.04,0-.04,0-.04,0-.04.005-.04.005-.041.006-.04.005-.04.007-.04.006-.04.007L50,49.5l-.04.008-.04.008-.04.008-.04.009-.04.01-.039.01-.04.01-.039.01-.039.011-.04.012-.039.012-.039.012-.038.012-.039.013-.038.014-.038.013-.038.014L49.3,49.7l-.038.015-.037.015-.038.016-.037.016-.036.016-.037.017-.036.017L49,49.832l-.036.018-.036.018-.035.019-.035.019-.034.02-.035.02-.034.02-.034.021-.033.021-.033.021-.033.022-.033.022-.032.023-.032.023-.031.023-.032.024-.03.024-.031.025-.03.024-.03.026-.029.025-.029.026-.029.027-.028.026L48.2,50.4l-.027.027-.027.028-.027.028-.026.029-.026.029-.025.029-.025.03-.025.03-.024.031-.024.031-.024.032-.011.015-.011.016-.011.016-.011.017-.012.016-.01.016-.011.017-.011.016-.011.017-.01.017-.01.017-.011.017-.01.017-.01.017-.01.017-.01.018L47.743,51l-.01.018-.009.018-.01.018-.009.018-.009.018-.009.018-.01.02-.017.033-.019.032-.022.031-.023.029-.026.027-.027.026-.028.024-.03.022-.032.02-.033.018-.034.015-.034.014-.036.011-.036.009-.037.006-.037,0-.037,0h-.038l-.037,0-.037-.005-.036-.009-.036-.01-.035-.013-.034-.015-.033-.017-.032-.02-.031-.021-.029-.024-.027-.025-.026-.027-.024-.029-.022-.03-.02-.031-.018-.033-.015-.034-.014-.035-.011-.035L46.6,51l-.006-.036,0-.038,0-.037v-.037l0-.037.005-.037.009-.037.01-.035.013-.035.015-.035.012-.024.013-.026.013-.026.013-.026.013-.026.014-.025.014-.026.014-.025.014-.025.014-.025.015-.025.014-.025.015-.024.015-.025.015-.024.016-.024.015-.024.016-.024.015-.023.016-.024.016-.023.017-.023.016-.023L47,50.047,47.035,50l.034-.045.035-.044.035-.043.036-.043.036-.042.037-.041.037-.041.038-.04.038-.04.039-.039.04-.038.039-.038.041-.037.04-.036L47.6,49.4l.042-.035.042-.035.042-.034.043-.033.043-.033.043-.032.044-.032.044-.031.045-.03.044-.03.045-.029.046-.028.045-.028.046-.028.047-.027.046-.026.047-.025.047-.025.047-.025.048-.024.048-.023.048-.023.048-.022.048-.022.049-.021.049-.02.048-.02.05-.02.049-.019.049-.018.05-.018.05-.017.049-.017.05-.016.05-.016.051-.015.05-.015.05-.014.051-.013.051-.013.05-.013.051-.012.051-.011.05-.011.051-.011.051-.01.051-.009.051-.009.051-.009.051-.007.051-.008.051-.007.051-.006.051-.006.051-.006.051-.005.051,0,.051,0,.051,0,.051,0,.051,0,.05,0,.051,0h.2Z" fill-rule="evenodd"/>
        <path id="Path_20" data-name="Path 20" d="M48.964,104.934s3.217-6.323,2.609-11.746c-1.9-16.979,3.1-20.31,1.141-30.667a27.13,27.13,0,0,0-4.145-10.669c-4.8-6.543-14.026-9.942-22.051-8.4a32.12,32.12,0,0,0-8.986,3.532C7.542,52.286,5.466,63.487,6.764,72.928c.575,4.179,4.168,10.692,3.642,14.883-1.1,8.736-.789,13.465,1.939,19.1,2.324,4.8,11.371,8.421,21.262,7.393,1.685-.176,11.77-1.943,15.357-9.37Z" fill="#61e0ee" fill-rule="evenodd"/>
        <g id="Group_2" data-name="Group 2" clip-path="url(#clip-path)">
          <path id="Path_21" data-name="Path 21" d="M13.257,51.091s-3.317,8.089-1.3,14.642,5.582,15.693,5.016,24.835.4,15.046,2.427,17.635c4.084,5.228,15.208,5.986,18.039,5.177s-11.163,2.912-19.172-.323S9.131,96.23,10.183,87.736,4.439,76.815,6.7,62.173c3.64-8.575,3.721-8.089,6.553-11.082Z" fill="#3fc9df" fill-rule="evenodd"/>
          <path id="Path_22" data-name="Path 22" d="M26.617,63.646s-.994,4.97-6.917,4.68-6.337-6.337-6.337-6.337Z" fill="#3fc9df" fill-rule="evenodd"/>
          <path id="Path_23" data-name="Path 23" d="M51.949,61.12s-.994,4.97-6.917,4.68-6.337-6.337-6.337-6.337L51.949,61.12Z" fill="#3fc9df" fill-rule="evenodd"/>
        </g>
        <path id="Path_25" data-name="Path 25" d="M30.542,42.511h.3l.1,0,.1,0,.1,0,.1,0,.1,0,.1,0,.1.005.1.005.1.005.1.006.1.006.1.007.1.007.1.008.1.007.1.009.1.009.1.009.1.009.1.01.1.011.1.011.1.011.1.012.1.012.1.013.1.013.1.013.1.014.1.014.1.015.1.015.1.015.1.016.1.016.1.017.1.017.1.017.1.018.1.019.1.018.1.02.1.019.1.02.1.02.1.021.1.021.1.022.1.022.1.022.1.023.1.023.1.024.1.023.1.025.1.025.1.025.1.025.1.026.1.026.1.027.1.027.1.028.1.028.1.028.1.029.1.029.1.029.1.03.1.03.1.031.1.031.1.031.1.032.1.032.1.033.1.033.094.033.1.034.094.034.094.034.094.035.094.035.094.036.094.036.093.036.093.037.093.037.093.037.093.038.093.038.092.039.092.039.093.039.092.04.091.04.092.041.091.04.092.042.091.041.09.042.091.042.091.043.09.043.09.044.09.043.09.045.089.044.09.045.089.045.089.046.088.046.089.046.088.047.088.047.088.047.088.048.087.048.087.048.087.049.087.049.087.05.086.05.086.05.086.051.086.051.085.051.085.052.085.052.085.052.084.053.084.053.084.053.084.054.083.054.084.055.083.055.082.055.083.055L44,46.7l.082.056.081.057.082.057.081.057.08.057.081.058.08.059.08.058.08.059.079.059.079.06.079.06.079.06.078.061.078.061.078.061.077.062.077.062.077.062.076.063.077.063.075.063.076.064.075.064.075.064.075.065.074.065.074.065.074.066.073.066.073.066.073.067.072.066.072.068.072.067.071.068.071.069.07.068.071.069.07.069.069.07.07.07.069.07.068.07.068.071.068.071.068.072.067.071.067.073.066.072.066.073.066.073.065.073.065.074.064.074.065.074.063.075.064.075.063.075.062.075.063.076.061.076.062.077.061.077.061.077.06.077.06.078.059.078.059.078.059.079.058.079.053.072.053.073.052.074.052.074.051.074.052.075.05.075.051.075.05.075.05.077.049.076.049.077.049.077.048.077.048.078.048.078.047.078.047.079.047.079.046.079.046.08.046.079.045.081.045.08.045.081.044.081.044.081.044.082.043.081.043.082.043.083.042.082.042.083.042.083.041.084.041.083.041.084.04.084.04.084.04.084.04.085.039.085.039.085.038.085.038.086.038.085.038.086.037.086.037.086.037.086.036.087.036.086.036.087.036.087.035.087.035.088.034.087.035.087.034.088.034.088.033.088.033.088.033.088.033.088.032.088.032.089.032.088.031.089.031.088.031.089.031.089.03.089.03.089.03.089.029.089.03.089.028.089.029.089.029.089.028.09.027.089.028.089.027.09.027.089.027.089.027.09.026.089.026.089.026.09.025.089.025.089.025.09.025.089.024.089.025.09.024.089.023.089.024.089.023.089.023.089.022.089.023.089.022.089.022.088.021.089.022.089.021.088.021.088.021.089.02.088.02.088.02.088.02.088.019.088.02.087.019.088.018.087.019.087.018.087.018.087.018.087.018.086.017.087.017.086.017.086.017.086.016.086.017.086.023.123.022.123.022.122.021.121.02.121.02.12.019.12.019.119.018.119.018.118.016.117.017.117.015.117.015.115.015.116.014.114.013.115.013.113.012.114.012.112.011.113.011.111.01.112.009.11.009.111.009.11.008.109.007.109.007.108.006.109.006.107.006.107.005.107,0,.107,0,.106,0,.106,0,.105,0,.105,0,.1,0,.1v.618l0,.1v.1l0,.1,0,.1,0,.1,0,.1,0,.1,0,.1-.005.1-.005.1-.005.1-.006.1-.006.1-.006.1-.007.1-.007.1-.007.1-.008.1-.008.1-.008.1-.009.1-.009.1-.009.1-.01.1-.009.1-.011.1-.01.1-.011.1-.011.1-.011.1-.011.1-.012.1-.012.1-.012.1-.013.1-.012.1-.013.1-.014.094-.013.1-.014.1-.013.094-.014.1-.015.1-.014.094-.015.1-.014.094-.03.189-.031.189-.031.189-.032.19-.033.189-.033.19-.033.19-.034.191-.034.191-.035.192-.07.385-.071.388-.071.391-.072.4-.036.2-.036.2-.035.2-.036.2-.035.205-.035.205-.035.207-.035.209-.034.21-.034.211-.034.214-.017.107-.016.108-.017.108-.016.109-.016.109-.016.11-.016.11-.016.111-.015.111-.016.112-.015.112-.015.113-.015.113-.015.114L52.1,79.4l-.014.115-.014.116-.014.116-.014.116-.014.118-.013.117-.014.119-.013.119-.012.12-.013.12-.012.121-.013.122-.011.122-.012.123-.012.123-.011.125-.011.125-.01.125-.011.127-.01.127-.009.127-.01.129-.009.129-.009.13-.009.131-.008.131-.008.133-.008.133-.007.133-.008.135-.006.135-.007.136-.006.137-.006.138-.005.139-.005.139-.005.141,0,.141,0,.142,0,.142,0,.144,0,.145,0,.145,0,.147v.147l0,.148V86.3l0,.155,0,.155,0,.157,0,.158,0,.158,0,.16,0,.161.005.162.005.162.006.164.006.165.007.166.007.167.008.168.008.169.009.17.009.171.01.172.01.174.011.174.011.176.012.177.013.178.013.179.013.18.014.181.015.182.015.184.016.185.016.186.017.187.018.188.018.19.019.191.019.192.02.193.021.194.021.2.022.2.007.066.007.067.006.067.007.066.005.067.006.067.005.067.005.067,0,.068,0,.067,0,.067,0,.067,0,.067,0,.068,0,.067,0,.067,0,.067v.674l0,.067v.067l0,.068,0,.067,0,.067,0,.067,0,.067,0,.068,0,.067,0,.067,0,.067-.005.067-.005.067-.005.067-.005.067-.006.067-.006.067-.006.066-.006.067-.007.067-.007.066-.007.067-.007.066-.008.067-.008.066-.008.066-.008.066-.009.067-.008.066-.009.066-.009.065-.009.066-.01.066-.01.066-.01.065-.01.065-.01.066-.011.065-.01.065-.011.065-.011.065-.011.065-.012.065-.011.064-.012.065-.012.064-.012.064-.013.064-.012.065-.025.127-.026.127-.027.127-.027.125-.028.126-.028.125-.029.124-.029.123-.03.123-.03.122-.031.121-.031.121-.031.12-.032.119-.032.118-.033.118-.033.117-.033.115-.033.115-.034.115-.034.113-.034.112-.034.111-.034.111-.035.109-.035.109-.034.107-.035.106-.035.106-.035.1-.035.1-.035.1-.036.1-.035.1-.035.1-.034.1-.035.1-.035.1-.034.093-.035.092-.034.091-.034.09-.034.088-.034.087-.033.085-.033.084-.033.083-.032.081-.032.08-.032.078-.031.077-.031.075-.031.074-.03.072-.03.07-.029.07-.057.132-.054.126-.053.12-.05.112-.047.105-.045.1-.041.09-.039.083-.035.074-.032.067-.028.059-.024.05-.021.043-.028.056-.008.017-.02.041-.022.045-.023.045-.022.045-.023.045-.023.045-.023.045-.023.044-.023.044-.024.045-.023.044-.024.044-.024.044-.024.043-.024.044-.024.043-.025.044-.024.043-.025.043-.025.043-.025.043-.025.043-.051.084-.051.084-.052.084-.052.084-.053.082-.054.083-.054.081-.054.081-.055.081-.056.08-.056.08-.056.079-.057.078-.057.078-.058.078-.059.077-.059.076-.059.076-.06.076-.06.075-.06.074-.061.074-.062.074-.062.073-.062.072-.063.072-.063.072-.063.07-.064.071-.064.07-.065.069-.065.069-.065.069-.066.068-.066.067-.067.067-.066.067-.067.066-.068.066-.068.065-.068.064-.068.064-.069.064-.069.063-.069.063-.07.062-.07.062-.07.062-.07.06-.071.061-.071.06-.071.059-.072.059-.071.059-.072.058-.073.058-.072.057-.073.057-.073.056-.073.056-.073.056-.073.055-.074.054-.074.055-.074.053-.074.054-.075.052-.074.053-.075.052-.075.052-.075.051-.075.05-.076.051-.075.05-.076.049-.076.049-.076.049-.076.048-.076.048-.076.047-.076.047-.077.047-.076.046-.077.046-.076.046-.077.045-.077.044-.077.045-.077.043-.076.044-.077.043-.078.043-.077.042L42.57,112l-.077.041-.077.041-.077.041-.077.041-.077.04-.078.039-.077.04-.077.038-.077.039-.077.038-.077.038-.077.037-.077.038-.077.036-.077.037-.077.036-.077.035-.076.036-.077.035-.077.034-.076.034-.077.034-.076.034-.076.033-.076.033-.076.032-.076.033-.076.031-.076.032-.075.031-.075.031-.076.031-.075.03-.075.03-.075.029-.074.029-.075.029-.074.029-.074.028-.074.028-.074.028-.073.027-.074.027-.073.027-.073.026-.072.026-.073.026-.072.025-.072.025-.072.025-.072.025-.071.024-.071.024-.071.024-.071.023-.07.023-.07.023-.07.022-.069.023-.069.022-.07.021-.136.043-.136.041-.134.04-.133.039-.132.038-.13.037-.129.036-.128.035-.125.034-.125.032-.122.032-.121.031-.12.03-.117.029-.116.028-.114.026-.112.026-.111.026-.108.024-.106.023-.1.022-.1.022-.1.02-.1.02-.1.019-.094.018-.091.018-.089.016-.087.016-.084.015-.082.014-.079.013-.077.013-.074.012-.072.011-.069.011-.067.01-.064.009-.061.008-.058.008-.056.007-.053.007-.05.006-.047,0-.044,0-.119.012-.117.012-.118.011-.118.011-.117.01-.118.01-.117.009-.117.009-.118.009-.117.008-.117.008-.117.007-.116.007-.117.007-.117.006-.116.006-.116,0-.117,0-.116,0-.116,0-.116,0-.115,0-.116,0-.115,0-.116,0h-.8l-.115,0h-.114l-.114,0-.114,0-.113,0-.114,0-.113,0-.113,0-.113,0-.113,0-.113,0-.112-.006-.113,0L28.359,115l-.112-.007-.112-.007-.111-.007-.112-.008-.111-.008-.111-.008-.111-.009-.111-.009-.11-.009-.111-.01-.11-.01-.11-.011-.109-.011-.11-.011-.109-.012-.109-.012-.109-.012-.109-.013-.108-.013-.109-.013-.108-.014-.108-.014-.107-.015-.108-.014-.107-.015-.107-.016-.107-.016-.106-.016-.106-.016-.106-.017-.106-.017-.106-.018-.1-.018-.1-.018-.1-.019-.1-.018-.1-.02-.1-.019-.1-.02-.1-.02-.1-.021-.1-.021-.1-.021-.1-.021-.1-.022-.1-.022-.1-.023-.1-.022-.1-.023-.1-.024-.1-.023-.1-.024-.1-.025-.1-.024-.1-.025-.1-.026-.1-.025-.1-.026-.1-.026-.1-.027-.1-.026-.1-.028-.1-.027-.1-.028-.1-.028-.1-.028-.1-.029-.1-.028-.095-.03-.095-.029-.095-.03-.094-.03-.094-.03-.094-.031-.094-.031-.093-.031-.092-.031-.093-.032-.092-.032-.092-.032-.091-.033-.091-.033-.091-.033-.09-.034-.09-.033-.09-.034-.089-.034-.089-.035-.089-.035-.088-.035-.088-.035-.088-.036-.087-.036-.087-.036-.086-.036-.086-.037-.086-.037-.085-.037-.085-.038-.085-.037-.084-.038-.084-.038-.083-.039-.084-.039-.082-.039-.083-.039-.081-.039-.082-.04-.081-.04-.081-.04-.08-.041-.08-.041-.08-.041-.079-.041-.079-.042-.078-.041-.078-.042-.077-.042-.077-.043-.077-.043-.076-.043L16.6,111.8l-.076-.043-.075-.044-.074-.044-.074-.044-.074-.044-.073-.045-.073-.045-.072-.045-.072-.045-.072-.045-.071-.046-.071-.046-.07-.046-.07-.047-.069-.046-.069-.047-.068-.047-.068-.048-.067-.047-.067-.048-.067-.048-.066-.048-.066-.048-.065-.049-.064-.049-.065-.049-.063-.049-.063-.05-.063-.049-.062-.05-.062-.051-.062-.05-.06-.05-.061-.051-.059-.051-.06-.051-.059-.052-.058-.051-.058-.052-.057-.052-.057-.052-.056-.053-.056-.052-.055-.053-.055-.053-.054-.053-.054-.054-.053-.054-.053-.053-.052-.054-.051-.055-.051-.054-.051-.055-.05-.055-.049-.055-.049-.055-.049-.055L13,108.915l-.048-.056L12.9,108.8l-.047-.056-.045-.056-.045-.057-.045-.057-.043-.057-.044-.057-.042-.057-.043-.058-.041-.057-.041-.058-.041-.058-.039-.059-.04-.058L12.308,108l-.038-.059-.038-.059-.037-.059-.036-.059-.035-.06-.035-.059-.035-.06-.033-.06-.034-.061-.032-.06-.032-.061-.031-.061-.031-.06-.029-.061-.065-.135-.064-.134-.063-.133-.062-.134-.061-.133-.06-.133-.059-.133-.059-.132-.058-.133-.056-.132-.056-.132-.028-.066-.027-.066-.028-.066-.027-.066-.026-.065-.027-.066-.026-.066-.026-.066-.026-.066-.026-.065-.026-.066-.025-.066-.025-.065-.025-.066-.024-.066-.025-.065-.024-.066-.024-.065-.024-.066-.024-.066-.023-.065-.023-.066-.023-.066-.023-.065-.023-.066-.022-.065-.022-.066-.022-.066-.022-.065-.021-.066-.022-.066-.021-.065-.021-.066-.021-.066-.02-.066-.02-.065-.021-.066-.019-.066-.02-.066-.02-.066L10.208,103l-.019-.065-.019-.066-.019-.066-.018-.066-.018-.067-.018-.066-.018-.066-.018-.066-.018-.066-.017-.067-.017-.066-.017-.066-.016-.067-.017-.066-.016-.067-.016-.066-.016-.067-.016-.067-.015-.066-.016-.067-.015-.067-.015-.067-.014-.067-.015-.067-.014-.068-.014-.067-.014-.067-.014-.067-.014-.068L9.722,101l-.013-.068-.013-.068-.013-.068-.012-.067-.013-.068-.012-.068-.012-.069-.012-.068-.011-.068-.012-.068-.011-.069-.011-.069-.011-.068-.011-.069-.01-.069-.01-.069-.011-.069-.01-.069-.009-.07-.01-.069-.009-.07-.009-.069-.009-.07-.009-.07-.009-.07-.008-.07-.009-.07-.008-.071L9.418,99l-.008-.071-.008-.07L9.4,98.791l-.007-.071-.007-.071-.007-.072-.007-.071-.006-.072-.006-.071-.006-.072-.006-.072-.006-.072-.006-.072L9.326,98l-.005-.072-.005-.073-.005-.073-.005-.073L9.3,97.565l-.008-.147-.007-.148-.007-.149-.006-.149-.006-.149,0-.151,0-.151,0-.152,0-.153,0-.153,0-.154v-.625l0-.158,0-.159,0-.16,0-.161,0-.162.005-.162.006-.164.006-.164.007-.166.008-.166.008-.168.009-.168.009-.169.01-.171.01-.171.012-.173.011-.173.013-.175.013-.176.013-.177.014-.178.015-.179.015-.18.016-.182.016-.182.017-.184.018-.185.018-.186.018-.188.02-.189.019-.19.021-.191.02-.193.022-.194.022-.195.022-.2.023-.2.023-.2.024-.2.025-.2.025-.2.025-.2.006-.046.005-.045.005-.045,0-.045,0-.046,0-.046,0-.046,0-.047,0-.046,0-.047,0-.048,0-.047v-.048l0-.048v-.443l0-.05,0-.051,0-.051,0-.051,0-.051,0-.051,0-.052,0-.052,0-.052,0-.052-.005-.053-.005-.052-.006-.053-.005-.053-.006-.053-.006-.054-.007-.054-.006-.053L9.8,85.656,9.791,85.6l-.007-.054-.008-.055-.008-.054-.008-.055-.009-.055-.009-.055-.009-.056-.009-.055-.009-.056-.01-.056-.01-.056-.01-.056-.011-.057-.01-.056-.011-.057-.012-.057-.011-.057L9.618,84.6l-.011-.057L9.6,84.483l-.013-.058-.012-.058-.013-.057-.026-.116L9.5,84.077l-.027-.117-.029-.117-.029-.118-.03-.119-.031-.118-.031-.12L9.3,83.249l-.033-.12-.033-.121-.034-.12-.035-.121-.035-.122-.035-.121L9.053,82.4l-.037-.122-.037-.123-.038-.123L8.9,81.911l-.039-.123-.039-.123-.039-.124-.04-.124-.04-.123-.041-.124-.041-.125-.041-.124L8.541,80.8,8.5,80.672l-.042-.124-.043-.125L8.373,80.3l-.085-.249L8.2,79.8l-.087-.249L8.029,79.3l-.087-.249-.173-.5-.086-.248L7.6,78.062l-.085-.246-.083-.245-.042-.122-.041-.122-.041-.121-.041-.122-.04-.12-.04-.121-.039-.12-.039-.12-.039-.12-.038-.119-.037-.119-.038-.119-.036-.118-.036-.117-.036-.118-.035-.116-.034-.117-.034-.116-.033-.115-.033-.115-.032-.115-.031-.114-.03-.114-.03-.113-.029-.112L6.5,74.514,6.471,74.4l-.027-.111-.025-.11-.025-.109-.012-.055-.012-.055-.012-.054-.011-.055L6.336,73.8l-.011-.054-.011-.054-.01-.053-.01-.054-.01-.053-.01-.054-.009-.053-.009-.053-.009-.052-.009-.053-.008-.052-.008-.053-.008-.052-.008-.052L6.2,73.006l-.015-.113-.015-.113-.015-.112-.014-.113-.014-.113-.014-.113L6.1,72.215,6.086,72.1l-.013-.114-.012-.113-.012-.114-.012-.114-.012-.114-.011-.115L6,71.3l-.011-.115-.01-.114-.01-.115-.009-.115-.009-.115-.009-.115L5.938,70.5l-.008-.116-.008-.115-.007-.116-.007-.115L5.9,69.922,5.9,69.806,5.89,69.69l-.006-.116-.005-.116-.005-.116,0-.116,0-.116,0-.117,0-.116,0-.117,0-.116,0-.117V68.41l0-.116v-.819l0-.117,0-.118,0-.117,0-.117,0-.117,0-.118,0-.117,0-.117.005-.118.005-.117.006-.117.006-.118L5.9,65.95l.007-.117.007-.118.008-.117.008-.118.009-.117.009-.117.009-.118.01-.117.011-.117.011-.118L6,64.659l.011-.117.012-.117.013-.117.013-.117.013-.118.014-.117.015-.117.014-.117.015-.116.016-.117.016-.117.017-.117.017-.117.017-.116.018-.117.019-.116.018-.117.02-.116L6.3,62.44l.021-.116.02-.116.022-.116.021-.116.022-.116.023-.116.023-.116.024-.115L6.5,61.4l.024-.115.025-.115.026-.115.026-.115.026-.115.027-.115.028-.115.028-.114.028-.115.029-.114.03-.114.029-.114.031-.114.031-.114.031-.113.032-.114.033-.113.033-.113.033-.113.035-.113L7.119,59l.035-.113.036-.112.036-.112.037-.112L7.3,58.44l.037-.112.039-.111.039-.111.039-.112.04-.111.04-.11.041-.111.042-.11.042-.11.042-.11.043-.11.044-.11L7.832,57l.045-.109.045-.109.046-.109.046-.108.047-.109.048-.108.048-.107.049-.108.049-.107.05-.107.05-.107.051-.107.052-.106L8.51,55.5l.053-.106.053-.106.054-.1.054-.1.055-.1.056-.1.056-.1.057-.1.057-.1.058-.1.059-.1.059-.1.06-.1.06-.1.061-.1.061-.1.063-.1.062-.1.064-.1.064-.1.064-.1.066-.1.065-.1.067-.1.067-.1.068-.1.068-.1.069-.1.069-.1.07-.1.071-.1.072-.1.072-.1.072-.1.074-.1.074-.1.074-.1.076-.094.076-.094.076-.093.077-.094.078-.092.039-.047.039-.046.04-.046.04-.046.039-.046.04-.046.04-.046.041-.045.04-.046.041-.045.041-.045.041-.046.041-.045.041-.045.041-.045.042-.045.042-.044.042-.045.042-.044.042-.045.042-.044.043-.044.043-.044.043-.044.043-.044.043-.044.043-.044.044-.043L12.443,50l.044-.043.044-.043.044-.044.044-.043.045-.043.045-.042.045-.043.045-.043.045-.042.046-.043.045-.042.046-.042.046-.042.046-.042.046-.042.047-.042.046-.041.047-.042.047-.041.047-.041.047-.042.048-.041.048-.041.047-.04.048-.041.048-.041.049-.04.048-.04.049-.041.049-.04.049-.04.049-.04.049-.039.05-.04.05-.04.049-.039.05-.039.051-.04.05-.039.051-.038.05-.039.051-.039.051-.039.052-.038.051-.038.052-.038.051-.039.052-.037.053-.038.052-.038.052-.038.053-.037.053-.037.053-.038.053-.037.053-.037.054-.036.054-.037.054-.037.054-.036.054-.036.054-.036.055-.037.055-.035.055-.036.055-.036.055-.035.056-.036.055-.035.056-.035.056-.035.056-.035.057-.035.056-.034.057-.035.057-.034L16.326,47l.057-.034.058-.034L16.5,46.9l.057-.034.058-.033.059-.034.058-.033.058-.033.059-.033.059-.033.059-.032.059-.033.06-.032.06-.033.059-.032.06-.032L17.4,46.4l.135-.071.136-.071.135-.072.136-.071.136-.07.136-.071.136-.07.136-.07.137-.069.136-.07.137-.068.137-.069.137-.068.138-.068.137-.067.138-.067.138-.067.138-.066L20,45.092l.138-.065.139-.065.139-.064.14-.064.139-.063.14-.063.14-.062.141-.061.141-.061.141-.061.141-.059.141-.059.072-.03.071-.029.071-.029.071-.028.071-.029.071-.028.072-.029.071-.028.072-.028.072-.027.071-.028.072-.027.072-.027.072-.027.072-.027.073-.027.072-.026.072-.026.073-.026.072-.026.073-.026.073-.025.073-.025.073-.025.073-.025.073-.025.073-.024.073-.024.074-.024.073-.024.074-.023.074-.023.074-.023.074-.023.074-.023.074-.022.074-.022.075-.022.074-.021.075-.022.074-.021.075-.021.075-.02.075-.021.075-.02.076-.02.075-.019.076-.02.075-.019.076-.019.076-.018.076-.019.076-.018.076-.017.076-.018.077-.017L25.871,43l.077-.017.077-.016.077-.016.077-.016.077-.016.077-.015.078-.015.1-.018.1-.018.1-.018.1-.016.1-.017.1-.016.1-.015.1-.015.1-.015.1-.014.1-.014.1-.013.1-.013.1-.012.1-.012.1-.011.1-.011.1-.011.1-.01.1-.009.1-.009.1-.009.1-.008.1-.008.1-.007.1-.007.1-.007.1-.006.1-.005.1-.005.1-.005.1,0,.1,0,.1,0,.1,0,.1,0,.1,0h.5Zm-.193,1.141H30.16l-.094,0-.094,0-.094,0-.094,0-.094,0-.094,0-.094,0-.094,0-.094.005-.094.005-.094.006-.093.006-.094.006-.093.007-.094.008-.093.007-.094.009-.093.008-.093.009-.093.01-.093.01-.093.01-.093.011-.093.011-.092.012-.093.012-.093.012-.092.013-.092.013-.093.014-.092.014-.092.015-.092.015-.091.016-.092.016-.092.016-.091.017-.092.017-.073.014-.073.015-.073.014-.072.015-.073.016-.073.015-.072.016-.072.016-.073.016-.072.017-.072.017-.072.017-.072.017-.072.018-.071.017-.072.019-.072.018-.071.019-.072.018-.071.02-.071.019-.071.019-.071.02-.071.02-.071.021-.071.02-.071.021-.07.021-.071.021-.071.022-.07.021-.07.022-.071.022-.07.023-.07.022-.07.023-.07.023-.07.023-.07.024-.07.023-.069.024-.07.024-.07.025-.069.024-.07.025-.069.025-.069.025-.07.025-.069.026-.069.025-.069.026-.069.026-.069.027-.069.026-.069.027-.069.027L22.6,45.2l-.069.027-.068.027-.069.028-.068.027-.069.028-.068.028-.069.028-.137.058-.136.057-.137.059-.136.059-.136.059-.136.06-.135.061-.136.061-.135.062L20.755,46l-.135.063-.135.063-.135.064-.135.065-.135.065-.134.066-.135.065-.134.067-.135.067-.134.067-.134.068-.134.068-.135.068-.134.069-.134.069-.134.069-.134.07-.134.07-.134.07-.134.071-.134.071-.133.07-.057.031-.057.03-.057.031-.056.031-.056.031-.056.031-.056.031-.056.031-.055.031-.055.032-.056.031-.054.032-.055.032-.055.032-.054.032-.054.032-.054.033-.054.032-.054.033-.054.032-.053.033-.053.033-.053.033-.053.034-.053.033-.052.033-.052.034-.052.034-.052.034-.052.033-.052.035-.051.034-.051.034-.052.034-.051.035-.05.035-.051.034-.05.035-.05.035-.051.035-.049.036-.05.035-.05.035-.049.036-.049.036-.049.036-.049.036-.049.036-.049.036-.048.036-.048.036-.048.037-.048.036-.048.037-.047.037-.048.037-.047.037-.047.037-.047.037-.046.038-.047.037-.046.038-.047.038-.046.038-.046.037-.045.039-.046.038-.045.038-.045.038-.045.039-.045.038-.045.039-.045.039-.044.039-.044.039-.044.039-.044.039-.044.039-.044.04-.043.039-.044.04-.043.04-.043.04-.042.04-.043.04-.043.04-.042.04-.042.04-.042.041-.042.04-.042.041-.041.041-.042.041-.041.041-.041.041-.041.041-.04.041-.041.041L13,51.061l-.04.041-.04.042-.04.042-.04.042-.039.042-.04.042-.039.042-.039.042-.039.042-.039.043-.039.042-.039.043-.038.043-.038.042-.038.043-.038.043-.038.043-.038.043-.037.044-.038.043-.037.043L12.15,52l-.037.043-.073.088-.073.088L11.9,52.3l-.072.089-.071.089-.07.089-.07.09-.069.09-.069.09-.067.091-.068.091-.067.091-.066.092-.066.092-.065.093-.064.092-.064.093-.063.094-.063.093-.062.1-.062.094-.061.094-.06.1-.06.1-.06.1-.058.1-.059.1-.057.1-.057.1-.057.1-.056.1-.055.1-.055.1-.055.1-.053.1-.054.1-.052.1-.052.1-.052.1-.051.1-.051.1-.05.1-.049.1-.049.1-.048.1-.048.1-.047.1-.047.1-.046.1-.046.1-.045.1-.045.1-.044.1-.044.1-.043.1-.043.1-.042.1-.041.1-.041.1-.041.1-.04.1-.039.1-.039.1-.039.106-.038.1-.037.106-.037.107-.037.106-.036.106-.035.107-.035.107-.035.107-.034.108-.033.107-.033.108-.033.108-.032.108-.031.108-.031.108-.031.109-.03.108-.03.109-.029.109-.029.109-.028.11-.028.109-.027.11-.027.109-.026.11-.026.11-.025.11-.025.111-.025.11-.024.111-.023.11-.023.111-.023.111-.022.111-.022.111-.021.111-.021.112-.02.111-.02.112-.019.111-.019.112-.019.112-.018.112-.018.112-.017.112-.017.112-.016.112-.016.113-.016.112-.015.113-.014.112-.015.113-.013.113L7.2,64.2l-.013.113-.012.113-.012.113-.012.113-.011.113-.011.113L7.117,65l-.01.113-.01.114-.009.113-.009.113-.008.113-.008.114-.008.113-.007.113-.006.114-.007.113-.006.113-.005.114-.005.113-.005.113-.005.114,0,.113,0,.114,0,.113,0,.113,0,.114,0,.113,0,.113v.906l0,.113,0,.113,0,.113,0,.113,0,.112,0,.113,0,.113,0,.112.005.113.005.112.005.113.006.112.006.112.006.113.007.112.007.112.007.111.008.112.008.112.008.112.009.111.009.112.01.111.009.111.01.111.011.111.011.111.011.111.011.11.012.111.012.11.012.11.013.11.013.11.013.11.014.11.013.109.015.11.014.109.015.109.007.046.006.047.007.047.008.047.007.047.008.048.008.048.008.048.009.048.009.049.009.049.009.049.01.049.01.05.01.049.01.05.01.051.011.05.011.051.011.05.024.1.024.1.024.1.026.105.027.106.027.107.028.107.029.108.03.109.03.11.032.11.032.111.032.112.033.112.034.113.035.114.035.114.035.115.036.115.037.116.037.116.038.117.038.118.039.117.039.119.04.119.039.119.041.12.04.12.041.12.083.243.084.244.085.245.085.246.173.5.087.249.087.25.087.251.086.251.086.252.043.126.043.126.043.126.042.127.042.126.042.126.042.127.041.126.041.126.041.126.04.127.04.126.04.126.039.126.039.126.038.126.038.126.037.125.037.126.037.125.035.126.036.125.034.125.034.124.034.125.032.124.032.124.032.124.03.124.03.123.029.123.028.123.028.122.013.061.013.061.013.061.013.061.013.061.012.061.012.061.012.06.012.061.011.06.012.06.01.061.011.06.011.06.01.06.01.06.01.059.009.06.009.06.009.059.009.06.008.059.009.059.007.059.008.059.007.059.007.059.007.058.007.059.006.059.006.058.005.058.006.058.005.058,0,.058.005.058,0,.058,0,.057,0,.058,0,.057,0,.057,0,.057,0,.057,0,.057,0,.057v.449l0,.055,0,.055,0,.056,0,.055,0,.055,0,.055,0,.054,0,.055L11,87.666l-.005.054-.006.054-.006.054-.007.053-.025.2-.025.2-.024.2-.024.2-.023.2-.023.2-.022.194-.022.193-.021.192-.02.19-.02.189-.02.188-.019.186-.018.185-.018.184-.017.182-.017.181-.016.18-.015.178-.015.178-.015.176-.014.175-.013.173-.013.173-.012.171-.011.17-.011.17-.01.167-.01.167-.009.166-.009.165-.008.163-.007.163-.007.161-.006.161-.006.159-.005.159,0,.157,0,.157,0,.155,0,.155,0,.154v.754l0,.149,0,.147,0,.147,0,.146,0,.145.006.145.006.143.006.143.007.142.008.142.009.141,0,.07.005.07.005.069.005.07.005.07.005.069.006.069.005.069.006.069.006.068.006.069.007.068.006.069.007.068.007.068.007.067.007.068.007.067.008.068.008.067.007.067.008.067.009.067.008.067.009.066.008.067.009.066.01.066.009.066.009.066.01.066.01.066.01.066.01.065.01.066.011.065.01.065.011.065.011.065.012.065.011.065.012.065.011.064.012.065.013.064.012.065.012.064.013.064.013.064.013.064.013.064.014.064.013.064.014.064.014.064.014.063.015.064.014.063.015.064.015.063.015.063.015.064.016.063.015.063.016.063.016.063.016.063.017.063.016.063.017.063.017.063.017.063.018.063.017.062.018.063.018.063.018.063.019.062.018.063.019.063.019.062L11.4,103l.019.062.02.063.019.062.02.063.021.062.02.063.02.063.021.062.021.063.021.062.021.063.022.062.022.063.022.062.022.063.022.062.023.063.022.063.023.062.023.063.024.063.023.062.024.063.024.063.024.063.025.062.024.063.025.063.025.063.025.063.026.063.025.063.026.063.026.064.027.063.026.063.054.127.054.127.056.127.056.127.057.128.058.128.059.128.06.129.06.129.062.129.062.129.025.052.026.051.026.051.027.051.028.052.028.051.028.051.03.051.029.05.031.051.031.051.031.051.032.05.033.051.033.051.034.05.035.05.035.051.035.05.036.05.037.05.037.05.038.05.038.05.039.05.04.049.04.05.04.049.042.05.041.049.043.049.042.049.044.049.044.049.044.049.045.049.046.048.046.049.046.048.048.048.047.048.049.048.048.048.05.048.05.048.05.047.051.047.051.048.052.047.053.047.053.047.053.046.054.047.055.046.055.047.055.046.056.046.057.046.057.045.057.046.058.045.059.046.059.045.059.045.06.045.061.044.061.045.061.044L15.9,110l.063.044.062.044.064.044.064.043.064.043.065.044.065.042.066.043.066.043.067.042.067.042.067.042.068.042.069.042.069.041.069.042.07.041.07.041.071.04.071.041.071.04.072.04.073.04.073.04.073.039.074.04.074.039.074.039.075.038.076.039.075.038.077.038.076.038.077.037.078.038.078.037.078.037.078.036.08.037.079.036.08.036.08.036.081.035.081.036.081.035.082.034.082.035.082.034.083.034.084.034.083.034.084.033.085.033.084.033.085.033.086.032.086.032.086.032.086.032.087.031.087.031.088.031.088.031.088.03.089.03.089.03.089.03.09.029.09.029.09.029.09.028.091.028.092.028.091.028.092.027.092.027.093.027.093.027.093.026.093.026.094.026.094.025.094.025.095.025.095.025.095.024.1.024.1.023.1.024.1.023.1.023.1.022.1.022.1.022.1.022.1.021.1.021.1.021.1.02.1.02.1.02.1.019.1.019.1.019.1.018.1.019.1.017.1.018.1.017.1.017.1.017.1.016.1.016.1.015.1.015.1.015.1.015.1.014.1.014.1.014.1.013.1.013.1.013.1.012.1.012.1.011.106.011.1.011.106.011.106.01.107.01.106.009.107.009.107.009.107.009.107.008.107.007.108.008.107.007.108.006.108.007.109.006.108,0,.109,0,.109,0,.108,0,.11,0,.109,0,.109,0,.11,0,.11,0,.109,0h.11l.111,0h.775l.111,0,.112,0,.111,0,.112,0,.111,0,.112,0,.112,0,.113,0,.112,0,.112,0,.113,0,.112-.006.113-.006.113-.007.113-.007.113-.008.113-.008.113-.008.113-.009.113-.009.114-.01.113-.01.114-.01.114-.011.113-.011.114-.012.038,0,.041,0,.044,0,.047-.006.05-.007.053-.007.056-.008.059-.008.061-.009.065-.01.067-.011.07-.011.072-.012.075-.012.077-.014.08-.014.082-.015.085-.016.087-.016.089-.017.091-.018.094-.019.1-.02.1-.02.1-.022.1-.022.1-.023.1-.024.108-.025.109-.026.111-.027.113-.027.115-.029.116-.03.118-.03.119-.032.121-.032.122-.033.124-.035.125-.035.127-.037.128-.038.129-.038.13-.04.132-.041.066-.02.066-.021.067-.022.067-.021.067-.022.067-.022.068-.023.068-.022.068-.023.069-.024.068-.023.069-.024.069-.024.07-.025.069-.024.07-.025.07-.025.07-.026.07-.026.071-.026.07-.027.071-.026.071-.027.071-.028.072-.027.071-.028.072-.029.071-.028.072-.029.072-.029.072-.03.072-.03.073-.03.072-.03.073-.031.072-.031.073-.031.073-.032.073-.032.072-.032.073-.033.073-.033.074-.033.073-.034.073-.034.073-.034.073-.035.074-.035.073-.035.073-.036.074-.036.073-.036.073-.037.074-.037.073-.037.073-.038.074-.038.073-.038.073-.039.073-.039.074-.039.073-.04.073-.04.073-.041.073-.041.073-.041.072-.041.073-.042.073-.042.072-.043.073-.043.072-.043.072-.044.072-.044.072-.044.072-.045.072-.045.072-.046.071-.045.072-.047.071-.046.071-.047.071-.048.071-.047.07-.048.071-.049.07-.049.07-.049.07-.05.069-.05.07-.05.069-.051.069-.051.069-.052.069-.051.068-.053.068-.052.068-.054.068-.053.067-.054.067-.054.067-.055.067-.055.066-.055.066-.056.066-.057.066-.056.065-.057.065-.058.065-.058.064-.058.064-.059.064-.059.063-.059.064-.06.062-.061.063-.06.062-.062.062-.061.061-.062.061-.063.061-.062.06-.064.06-.063.06-.064.059-.065.059-.065.059-.065.058-.066.058-.066.057-.067.057-.067.056-.068.056-.068.056-.068.055-.069.055-.069.055-.07.054-.07.053-.071.053-.071.053-.071.052-.072.052-.073.051-.073.051-.073.05-.074.05-.074.049-.075.049-.075.048-.075.048-.076.047-.077.047-.077.047-.078.023-.038.022-.039.023-.039.023-.04.022-.039.022-.04.023-.039.022-.04.022-.04.021-.04.022-.04.021-.04.022-.041.021-.04.021-.041.021-.04.021-.041.021-.041.02-.041.021-.041.02-.042.022-.046.01-.02.026-.051.018-.038.023-.046.026-.055.03-.063.033-.071.037-.078.039-.086.043-.093.045-.1.048-.108.05-.114.053-.121.055-.128.028-.066.028-.068.029-.07.03-.071.029-.072.031-.074.03-.076.031-.076.032-.079.031-.079.032-.082.032-.082.033-.084.032-.085.033-.086.033-.088.033-.089.034-.09.033-.092.034-.092.033-.094.034-.1.034-.1.034-.1.033-.1.034-.1.034-.1.034-.1.033-.1.034-.1.033-.105.033-.105.034-.106.033-.107.032-.108.033-.109.032-.11.032-.11.032-.111.032-.113.031-.112.031-.114.03-.114.03-.115.03-.115.029-.117.029-.116.029-.118.028-.118.027-.118.027-.119.027-.12.025-.12.026-.121.025-.12.024-.122.011-.061.012-.061.012-.061.011-.061.011-.061.011-.061.011-.062.011-.061.01-.062.01-.061.011-.062.01-.062.009-.062.01-.061.009-.062.009-.062.009-.062.009-.063.009-.062.008-.062.008-.062.008-.062.008-.063.008-.062.007-.063.007-.062.007-.062.007-.063L51,96.163,51,96.1l.006-.063.006-.062.006-.063.005-.062.005-.063.005-.062,0-.063.005-.063,0-.062,0-.063,0-.062,0-.063,0-.062,0-.063,0-.062,0-.063,0-.062,0-.063,0-.062v-.56l0-.062V94.23l0-.062,0-.062,0-.061,0-.062,0-.061,0-.062,0-.061,0-.061,0-.062-.005-.061-.005-.061-.005-.06-.006-.061-.006-.061-.006-.06-.007-.062-.022-.2-.022-.2-.02-.2-.021-.2-.019-.195-.019-.194-.019-.192-.018-.192-.017-.19-.016-.188-.017-.188-.015-.187-.015-.185-.014-.184-.014-.183-.013-.182-.013-.181-.012-.18-.012-.179-.011-.177-.01-.177-.01-.175-.009-.174-.009-.173-.009-.172-.008-.171-.007-.17-.007-.169-.006-.168-.006-.167-.005-.166-.005-.165-.005-.164,0-.162,0-.162,0-.161,0-.16,0-.159V86.31l0-.157v-.922l0-.15,0-.15,0-.148,0-.148,0-.147,0-.146.005-.145,0-.144.005-.144.005-.142.006-.142.005-.141.007-.14.006-.139.007-.139.008-.137.007-.137.008-.136.008-.136.009-.134.009-.134.009-.133.009-.132.01-.131.01-.131.01-.13.011-.129.011-.129.011-.128.012-.127.011-.126.012-.126.012-.125.013-.125.012-.123.013-.123.013-.123.014-.122.013-.121.014-.12.014-.12.014-.119.014-.119.015-.118.015-.117.015-.117L51,79.022l.015-.116.016-.115.015-.114.016-.114.016-.114.016-.113.016-.112.016-.112L51.145,78l.016-.111.017-.11.017-.11.017-.109.034-.217.035-.215.034-.213.036-.211.035-.21.036-.208.035-.207.036-.2.036-.2.037-.2.036-.2.072-.4.071-.392.071-.387.07-.384.034-.191.034-.189.034-.189.033-.188.032-.187.032-.187.032-.187.03-.185.03-.186.03-.185.014-.092.015-.093.014-.092.013-.092.014-.092.014-.093.013-.092.013-.092.013-.092.012-.092.012-.092.013-.092.011-.092.012-.092.011-.093.012-.092.01-.092.011-.092.01-.093.01-.092.01-.093.01-.092.009-.093.009-.093.008-.093.009-.093.008-.093.007-.093.008-.094.007-.093.006-.094.007-.094.006-.094.006-.094.005-.1.005-.094.005-.1,0-.1,0-.1,0-.1,0-.1,0-.1,0-.1,0-.1,0-.1v-.686l0-.1,0-.1,0-.1,0-.1,0-.1,0-.1,0-.1-.005-.1-.005-.1-.005-.1-.006-.1-.007-.1-.007-.1-.008-.1-.008-.105-.008-.105-.01-.106-.009-.107L52.5,65l-.011-.108-.011-.107-.012-.109-.012-.108-.013-.11-.013-.109-.014-.111-.014-.111-.015-.111-.016-.112-.016-.113-.017-.113-.017-.114-.018-.114-.019-.115-.019-.116-.019-.116-.021-.117-.021-.117-.021-.118-.022-.119-.016-.083-.016-.083-.016-.084-.017-.084-.016-.084-.017-.084-.017-.084-.018-.084L52,61.873l-.018-.085-.018-.085-.018-.084-.019-.085-.018-.086-.019-.085-.019-.085-.02-.085-.019-.086-.02-.085-.02-.086-.021-.086-.02-.086-.021-.086-.021-.086-.021-.086-.022-.086-.021-.086-.022-.086-.023-.086-.022-.087-.023-.086-.023-.086-.023-.087-.023-.086-.024-.086-.024-.087-.024-.086-.024-.087-.025-.086-.025-.087-.025-.086-.025-.086-.026-.087-.026-.086-.026-.086-.026-.087-.027-.086-.027-.086-.027-.086-.027-.087-.028-.086-.028-.086L51,58.091l-.028-.086-.029-.086-.029-.086-.029-.085-.03-.086-.029-.085-.03-.086-.031-.085-.03-.085-.031-.085-.031-.085-.031-.084-.032-.085-.032-.084-.032-.085-.032-.084-.033-.084-.033-.084-.033-.083-.033-.084-.034-.083-.034-.084-.034-.083-.035-.082-.035-.083-.035-.083-.035-.082-.036-.082-.035-.082-.037-.081-.036-.082-.037-.081-.037-.081-.037-.081-.038-.08-.037-.081L49.769,55l-.038-.079-.039-.08-.039-.079-.039-.079-.039-.079-.04-.078-.04-.079-.041-.078-.04-.077-.041-.077-.041-.078-.042-.076-.042-.077-.042-.076-.042-.076-.043-.075-.043-.075-.043-.075-.044-.075-.043-.074-.044-.074-.045-.073-.045-.073-.044-.073-.046-.072-.045-.072-.046-.072-.046-.071-.047-.071-.046-.071-.047-.07L48.4,52.6l-.047-.069-.048-.069-.048-.068-.049-.069-.049-.067-.049-.068-.054-.074L48,52.041l-.056-.073-.056-.073-.056-.073-.057-.073-.057-.073-.057-.072-.058-.072-.058-.072-.059-.071-.059-.071-.059-.071-.06-.07-.06-.071-.06-.07-.061-.069-.061-.07L47,50.828l-.061-.069-.063-.068-.062-.068-.063-.068-.063-.068-.064-.068-.064-.067-.065-.066-.064-.067-.065-.066-.066-.066-.065-.066-.066-.065-.067-.065-.067-.065-.067-.065-.067-.064-.068-.064-.068-.063-.068-.063-.069-.063-.069-.063-.069-.063-.07-.062-.07-.061-.07-.062-.071-.061-.071-.061-.071-.061L45,48.89l-.071-.06-.073-.059-.072-.06-.073-.059-.073-.059-.073-.058-.074-.058-.074-.058-.074-.057-.074-.058-.075-.056-.075-.057-.075-.056-.076-.056-.076-.056-.076-.055-.077-.055-.076-.055-.077-.054-.077-.054L43.43,47.7l-.078-.053-.078-.053-.078-.053-.079-.052-.078-.052-.079-.052-.08-.052-.079-.051-.08-.051-.08-.05-.08-.05-.081-.05-.081-.049-.081-.05-.081-.048-.081-.049-.082-.048-.082-.048-.082-.047-.082-.047-.083-.047-.083-.047-.083-.046-.083-.046-.083-.045-.084-.045-.084-.045-.084-.045-.084-.044-.085-.043-.085-.044-.084-.043-.086-.043-.085-.042-.085-.042-.086-.042-.086-.041-.086-.041-.086-.041-.087-.04-.086-.04-.087-.04-.087-.039-.087-.039-.087-.039-.088-.038-.088-.038-.087-.037-.088-.037-.089-.037-.088-.037-.088-.036L39,45.327l-.089-.036-.089-.035-.089-.034-.089-.035-.089-.034-.09-.033-.09-.033-.089-.033-.09-.033-.091-.032-.09-.032-.09-.031-.091-.031-.09-.031-.091-.03-.091-.03-.091-.03-.091-.029-.091-.029-.092-.028L37.1,44.66l-.092-.028-.091-.027-.092-.027-.092-.027-.092-.026-.092-.026-.092-.025-.093-.026-.092-.024-.093-.025-.092-.024L36,44.352l-.093-.023-.093-.023-.092-.023-.093-.022-.094-.022-.093-.021-.093-.021-.093-.02-.094-.02-.093-.02-.094-.02-.093-.019-.094-.018-.094-.019-.094-.017-.093-.018-.094-.017-.094-.017-.094-.016-.094-.016-.094-.015-.1-.015-.094-.015-.094-.014-.094-.014-.1-.014-.094-.013-.094-.013-.1-.012-.094-.012-.1-.012L33,43.8l-.1-.011-.094-.01-.1-.01-.094-.009-.1-.01-.094-.008-.1-.009-.094-.008-.1-.007-.1-.007-.094-.007-.095-.006-.095-.006-.094-.006-.095-.005-.094-.005-.095,0-.095,0-.094,0-.095,0-.094,0-.095,0-.094,0-.095,0h-.377Z" fill-rule="evenodd"/>
        <path id="Path_26" data-name="Path 26" d="M32.439,110.8c10.079-1.756,12.472-6.449,13.053-8.591,1.094-4.035,1.624-11.856.641-16.015a9.742,9.742,0,0,0-2.085-4.285c-2.415-2.628-13.212-2.856-17.248-2.239a18.772,18.772,0,0,0-4.52,1.418c-5.025,2.132-6.754,26.782,2.783,29.187a21.346,21.346,0,0,0,7.376.525Z" fill="#b7f8ff" fill-rule="evenodd"/>
        <circle id="Ellipse_1" data-name="Ellipse 1" cx="0.705" cy="0.705" r="0.705" transform="translate(49.204 66.437)" fill="#b7f8ff"/>
        <circle id="Ellipse_2" data-name="Ellipse 2" cx="0.705" cy="0.705" r="0.705" transform="translate(14.209 67.717)" fill="#b7f8ff"/>
        <g id="Group_3" data-name="Group 3">
          <path id="Path_27" data-name="Path 27" d="M36.98,71.135c-.319,1.012-.511,2.944-1.166,3.75-.318.391-.963.366-1.383.35-2.412-.093-2.2-2.556-2.408-4.726" fill="#ededed" fill-rule="evenodd"/>
          <path id="Path_28" data-name="Path 28" d="M32.055,70.083l.028,0,.028,0,.028.007.027.009.027.01.026.012.025.014.024.016.023.017.021.019.021.02.019.021.017.023.016.023.014.025.013.026.011.026.009.027.008.028.005.028,0,.028.009.1.009.105.009.1.008.105.008.1.007.1.014.207.014.206.007.1.008.1.007.1.008.1.008.1.008.1.009.1.009.1.005.048.005.048.005.047.006.048.005.047.006.046.006.047.006.046.007.046.006.045.007.045.007.045.007.044.008.044.007.044.008.043.008.043.009.043.009.041.009.042.009.041.009.041.01.04.01.04.011.039.01.039.011.038.012.038.011.037.012.037.013.036.012.036.013.035.013.034.014.034.013.034.015.033.014.032.015.031.015.032.016.03L33,74l.016.03.017.029.008.013.009.014.008.014.009.014.008.014.009.013.009.013.009.014.009.013.009.012.009.013.01.013.009.012.01.012.009.013.01.012.01.011.009.012.01.012.01.011.011.011.01.012.01.011.011.011.01.01.011.011.011.011.011.01.011.01.011.01.011.01.011.01.012.01.011.01.012.009.012.009.012.01.012.009.012.009.012.009.013.008.013.009.013.009.012.008.013.008.014.009.013.008.014.008.014.008.014.007.014.008.014.007.014.008.015.007.015.007.015.007.015.007.015.007.016.007.016.006.016.007.016.006.017.006.016.006.017.006.017.006.017,0,.018.006.018,0,.018.006.018,0,.018,0,.019,0,.019,0,.019,0,.02,0,.019,0,.02,0,.02,0,.021,0,.02,0,.021,0,.022,0,.021,0,.022,0,.022,0,.022,0,.023,0,.022,0,.023,0,.024,0,.023,0h.024l.024,0h.05l.079,0h.041l.041,0h.309l.02,0h.02l.02,0,.02,0,.019,0,.02,0,.019,0,.018,0,.019,0,.018,0,.018,0,.018,0,.017,0,.017,0,.017,0,.016,0,.016,0,.015,0,.015,0,.015,0,.014,0,.013,0,.014-.006.012,0,.013-.006.012,0,.011-.006.011-.006.011-.006.01-.006.009-.007.009-.006.009-.006.009-.007.008-.007.007-.006.008-.007.008-.008,0,0,0,0,0,0,0,0,0,0,0,0,.011-.014.011-.014.011-.015.011-.015.011-.016.012-.016.011-.017.011-.017.011-.018.011-.018.011-.019.011-.019.011-.02.011-.019.011-.021.011-.021.011-.021.011-.022.011-.022.011-.022.01-.023.011-.023.011-.024.01-.023.011-.025.01-.024.01-.025.01-.026.011-.025.01-.026.01-.026.01-.027.01-.027.009-.026.02-.056.019-.056.019-.057.018-.058.018-.059.018-.06.018-.06.017-.061.017-.062.017-.063.016-.063.017-.063.016-.064.016-.065.015-.065.016-.065.015-.065.015-.065.015-.066.029-.132.029-.131.028-.132.028-.13.028-.13.028-.128.027-.126.014-.063.014-.061.014-.062.014-.06.015-.06.014-.06.015-.058.014-.058.015-.057.015-.056.016-.055.015-.055.016-.053.016-.051.009-.027.011-.026.013-.026.015-.024.016-.024.018-.022.019-.021.02-.02.022-.019.023-.017.024-.015.025-.014.026-.012.027-.01.027-.009.028-.006.028,0,.029,0h.057l.028,0,.028,0,.028.006.027.009.027.01.026.012.025.014.024.015.023.017.022.018.021.02.019.021.018.023.016.023.014.025.013.025.012.027.009.027.007.027.006.028,0,.029,0,.028v.029l0,.028,0,.029-.005.028-.008.027-.014.046-.014.045-.013.047-.013.049-.014.049-.013.052-.014.052-.013.054-.013.055-.014.057-.013.057-.014.058-.013.06L37.2,72l-.027.123-.028.126-.027.129-.029.131-.028.133-.03.135-.03.135-.015.068-.016.068-.016.068-.016.068-.016.069-.017.068-.017.068-.018.068-.017.068-.019.067-.018.068-.019.067-.019.066-.02.067-.021.066-.02.065-.022.065-.022.065-.022.063-.012.032-.011.032-.012.031-.012.032-.012.031-.012.031-.013.03-.012.031-.013.03-.013.031-.013.03-.014.029-.013.03-.014.03-.014.029-.014.029-.015.029-.015.028-.015.028-.015.029-.015.027-.016.028-.016.028-.016.027-.017.027-.016.026-.017.027L36.257,75l-.018.026-.018.025-.018.026-.019.025-.019.024-.02.025-.011.014-.013.014-.012.014-.012.014-.013.013-.014.014-.024.025-.027.024-.027.024-.027.022-.028.022-.028.02-.029.02-.029.019-.029.017-.029.017-.03.016-.029.016-.03.014-.03.013-.03.013-.03.012-.03.012-.029.01-.03.01-.03.01-.03.009-.03.008-.03.008-.03.007-.029.007-.03.006-.029,0-.03.006-.029,0-.029,0-.029,0-.028,0-.029,0-.029,0-.028,0-.028,0-.028,0-.028,0h-.027l-.027,0h-.33l-.046,0H34.5l-.083,0h-.031l-.031,0-.031,0-.031,0-.031,0-.031,0-.03,0-.03,0-.03,0-.03,0-.03,0-.029,0-.03,0-.029,0-.028,0-.029,0-.029,0-.028-.006-.028-.006-.028-.006-.028-.006-.027-.006-.028-.007-.027-.007-.027-.007-.027-.008-.026-.008-.027-.008-.026-.008-.026-.008-.026-.009L33.5,75.5l-.026-.009-.025-.01-.025-.01-.025-.01-.024-.01-.025-.01-.024-.011-.024-.011-.024-.011-.024-.011-.023-.012-.023-.012-.024-.012-.022-.012-.023-.013-.022-.013-.023-.013-.022-.013-.021-.013-.022-.014-.021-.014-.021-.014-.021-.014-.021-.015-.021-.015-.02-.015-.02-.015-.02-.015-.019-.016-.02-.015-.019-.016-.019-.017-.019-.016-.018-.016-.019-.017-.018-.017L32.7,75l-.018-.017-.018-.018-.017-.017-.017-.018-.016-.018-.017-.018-.016-.018-.016-.018-.016-.019-.016-.018-.016-.019-.015-.019-.015-.019-.015-.02-.014-.019-.015-.019-.014-.02-.014-.02-.014-.02-.013-.02-.014-.02-.013-.02-.013-.02-.013-.021-.012-.02-.013-.021-.013-.021-.023-.041-.023-.043-.023-.042-.021-.043-.021-.044-.021-.043-.02-.044-.019-.045L32.1,74.1l-.018-.045-.017-.046-.017-.045-.016-.046-.016-.046-.015-.046-.014-.047-.014-.047-.014-.047-.013-.047-.013-.048-.012-.048-.012-.048-.011-.048-.011-.048-.01-.049-.01-.049-.01-.049-.01-.049-.009-.049-.008-.05-.009-.049L31.817,73l-.008-.05L31.8,72.9l-.008-.051-.007-.05-.006-.05-.007-.051-.006-.051-.006-.051-.006-.051,0-.051-.006-.051,0-.051-.01-.1-.009-.1-.009-.1-.008-.1-.008-.1-.008-.1-.007-.1-.007-.1-.014-.206-.014-.206-.008-.1-.007-.1-.008-.1-.008-.1-.009-.1-.009-.1,0-.029v-.028l0-.029,0-.028,0-.028.008-.028.01-.027.011-.026.013-.025.015-.025.016-.023.018-.022.02-.022.02-.019.022-.018.024-.017.024-.015.025-.014.026-.012.027-.01.027-.008.028-.006.028,0,.029,0h.057Z" fill-rule="evenodd"/>
          <path id="Path_29" data-name="Path 29" d="M34.374,63.62c-1.953.12-3.476,1.225-3.4,2.467s1.724,2.152,3.676,2.032,3.477-1.226,3.4-2.467S36.327,63.5,34.374,63.62Z" fill-rule="evenodd"/>
          <path id="Path_30" data-name="Path 30" d="M34.734,67.015h.023l.023,0,.023,0,.022,0,.023.006.022.008.021.008.021.01.02.011.02.012.019.014.019.014.017.015.017.016.016.017.014.018.014.018.013.019.012.02.011.021.009.021.009.022.007.022.006.022.005.023,0,.023,0,.023v.168l0,.049,0,.048,0,.048,0,.048,0,.048,0,.049,0,.047.006.1.006.1.008.1.008.1.008.1.009.1.009.1.01.1.01.1.011.1.01.1.022.2.022.2.023.2.011.1.011.1.01.1.011.1.01.1.01.1.01.1.009.1.008.1.008.1v.07l0,.023,0,.022-.005.023-.006.022-.007.022-.009.022-.01.021-.011.02-.012.02-.013.019-.014.019-.015.017-.016.017-.017.016-.017.015-.019.014-.019.013-.02.012-.02.01-.022.01-.021.009-.022.007-.022.006-.023,0-.023,0-.023,0h-.069l-.023,0-.023,0-.023,0-.022-.006-.022-.007L34.829,71l-.021-.01-.02-.011-.02-.012-.019-.013-.018-.014-.018-.015-.017-.016-.016-.017-.015-.017-.014-.019-.012-.019-.012-.02-.011-.021-.01-.021-.008-.021-.008-.022-.006-.022-.005-.023,0-.023,0-.023-.008-.1-.008-.1-.008-.1-.01-.1-.009-.1-.01-.1-.01-.1-.011-.1-.01-.1-.011-.1-.023-.2-.022-.2-.022-.2-.011-.1-.011-.1-.01-.1-.01-.1-.01-.1-.009-.1-.009-.1-.008-.1-.008-.1-.007-.1-.006-.1,0-.052,0-.051,0-.052,0-.052,0-.051,0-.052,0-.052v-.052l0-.052v-.1l0-.023,0-.023.005-.022.006-.023.008-.022.008-.021.01-.021.011-.02.012-.02.014-.019.014-.019.015-.017.016-.017.017-.016.018-.014.018-.014.019-.013.02-.012.021-.011.021-.009.022-.009.022-.007.022-.006.023,0,.023,0,.023,0h.046Z" fill-rule="evenodd"/>
          <path id="Path_31" data-name="Path 31" d="M29.352,67.987l.04.008.04.011.037.015.037.018.034.022.032.025.03.028.035.036.034.035.034.035.035.034.034.034.034.035.035.033.034.034.035.033.034.034.035.032.034.033.035.033.034.032.035.032.035.031.034.032.035.031.035.031.035.031.034.03.035.03.035.03.035.03.035.03.035.029.035.029.035.029.035.028.035.029.035.028.035.027.035.028.035.027.035.028.035.026.036.027.035.026.035.027.035.025.036.026.035.026.036.025.035.025.035.024.036.025.035.024.036.024.035.024.036.023.035.024.036.023.036.023.035.022.036.023.036.022.035.022.036.021.036.022.036.021.036.021.035.02.036.021.036.02.036.02.036.02.036.019.036.02.036.019.036.019.036.018.036.018.036.019.037.017.036.018.036.018.036.017.036.017.037.016.036.017.036.016.037.016.036.016.036.016.037.015.036.015.037.015.036.014.037.015.036.014.037.014.036.014.037.013.037.013.036.013.037.013.037.013.037.012.036.012.037.012.037.012.037.011.037.011.037.011.037.011.037.011.037.01.037.01.037.01.037.009.037.01.037.009.037.009.037.009.038.008.037.008.037.008.038.008.037.008.037.007.038.007.037.007.038.007.037.006.038.006.037.006.038.006.037.006.038,0,.038,0,.038,0,.037,0,.038,0,.038,0,.038,0,.038,0,.038,0,.038,0,.038,0,.038,0,.038,0,.038,0,.038,0,.038,0,.038,0h.038l.039,0h.385l.038,0h.039l.039,0,.038,0,.039,0,.039,0,.039,0,.039,0,.039,0,.039,0,.039,0,.039,0,.039,0,.04,0,.039,0,.039,0,.039,0,.04,0,.039,0,.04-.006.039-.006.04-.006.039-.006.04-.006.039-.007.04-.007.04-.007.04-.008.039-.007.04-.008.04-.008.04-.009.04-.008.04-.009.04-.009.04-.009.04-.01.04-.01.041-.01.04-.01.04-.01.041-.011L37,70.5l.04-.011.041-.011.04-.012.041-.012.041-.012.04-.012.041-.012.041-.013.04-.013.041-.013.041-.014.041-.014.041-.014.041-.014.041-.014.041-.015.041-.015.041-.015.041-.015.042-.016.041-.015L37.9,70.2l.041-.016.042-.016.041-.017.042-.017.041-.017.042-.018.041-.017.042-.018.042-.019.041-.018.042-.019.042-.019.042-.019.042-.019.042-.02.042-.02.042-.02.042-.02.042-.02.042-.021.042-.021.042-.022.042-.021.043-.022.042-.022.042-.022.043-.023.042-.022.043-.023.042-.023.043-.024.042-.023.043-.024.043-.025.037-.018.038-.015.039-.011.04-.008.04,0h.041l.041,0,.039.008.039.012.038.016.036.019.034.022.032.025.029.029.027.031.023.033.02.036.017.037.012.038.01.04.005.04,0,.041,0,.041-.007.04-.01.039-.013.039-.017.037-.021.035-.024.033-.027.03-.03.028-.032.025-.034.022-.045.025-.046.025-.045.026-.046.025-.045.025-.046.024-.045.025-.046.024-.045.023-.045.024-.046.023-.045.024-.045.022-.046.023-.045.022-.045.023-.046.021-.045.022-.045.021-.046.022-.045.021-.045.02-.045.021-.045.02-.046.02-.045.019-.045.02-.045.019-.045.019-.045.019-.045.018-.045.018-.045.018L38.216,71l-.045.018-.045.017-.045.017-.045.017-.045.016-.045.016-.045.016-.045.016-.045.016-.044.015-.045.015-.045.015-.045.014-.045.014-.044.015-.045.013-.045.014-.045.013-.044.013-.045.013-.045.012-.044.013-.045.012-.044.011-.045.012-.044.011-.045.011-.045.011-.044.011-.044.01-.045.01-.044.01-.045.009-.044.01-.045.009-.044.008-.044.009-.045.008-.044.008-.044.008-.044.007-.045.008-.044.007-.044.006-.044.007-.044.006-.044.006-.044.006-.044,0-.045.006-.044,0-.044,0-.044,0-.044,0-.043,0-.044,0-.044,0-.044,0-.044,0-.044,0-.043,0-.044,0-.044,0h-.044l-.043,0H34.9l-.044,0h-.043l-.043,0-.044,0-.043,0-.043,0-.043,0-.043,0-.043,0-.043,0-.043,0-.043,0-.043,0-.043,0-.043,0-.043,0-.043-.006-.043-.006-.042-.006-.043-.006-.043-.007-.042-.006-.043-.007-.043-.008-.042-.007L33.78,71.5l-.043-.008-.042-.008-.043-.009-.042-.009-.042-.009-.043-.009-.042-.01-.042-.01-.042-.01-.042-.01-.042-.011-.042-.011-.042-.011-.042-.011-.042-.012-.042-.012-.042-.012-.041-.012L32.98,71.3l-.042-.013-.041-.013-.042-.013-.041-.014-.042-.014-.041-.014-.042-.015-.041-.014-.041-.015-.041-.015-.042-.016-.041-.016-.041-.015L32.4,71.1l-.041-.016-.041-.017-.041-.017-.041-.017-.041-.017L32.156,71l-.041-.018-.041-.018-.04-.019-.041-.018-.04-.019-.041-.02-.04-.019-.041-.02-.04-.02-.04-.02-.041-.02-.04-.021-.04-.021-.04-.021-.04-.022-.04-.021-.04-.022-.04-.022-.039-.023-.04-.023-.04-.022-.04-.024-.039-.023-.04-.024-.039-.024-.04-.024-.039-.024-.04-.025L31,70.375l-.039-.025-.039-.025-.039-.026-.04-.026-.039-.026-.039-.026-.039-.027-.038-.027-.039-.027-.039-.027-.039-.028-.038-.028-.039-.028L30.45,70l-.038-.029-.039-.028-.038-.029-.038-.03-.039-.029-.038-.03-.038-.03-.038-.03-.038-.031-.039-.031-.038-.031-.037-.031-.038-.031-.038-.032-.038-.032-.038-.032-.037-.032-.038-.033-.038-.033-.037-.033-.038-.034-.037-.033-.037-.034-.038-.034-.037-.035-.037-.034-.037-.035-.037-.035-.037-.035-.037-.036L29.281,69l-.037-.036-.037-.036-.037-.037-.037-.036-.036-.037-.037-.038-.036-.037-.036-.037-.027-.031-.024-.033-.021-.035-.017-.037-.014-.038-.009-.039-.007-.041,0-.04,0-.041,0-.04.01-.04.013-.039.016-.037.02-.035.024-.033.026-.031.029-.029.032-.025.034-.022.036-.019.038-.016L29.191,68l.04-.008.04,0h.041l.04,0Z" fill-rule="evenodd"/>
          <path id="Path_32" data-name="Path 32" d="M41.722,47.084c-.744-.225-1.442-.1-1.559.29s.392.882,1.136,1.107,1.442.1,1.559-.29S42.466,47.309,41.722,47.084Z" fill="#b7f8ff" fill-rule="evenodd"/>
          <path id="Path_33" data-name="Path 33" d="M14.591,50.378c-.5.6-.655,1.289-.347,1.548s.965-.014,1.465-.609.655-1.289.346-1.548-.965.014-1.464.609Z" fill="#b7f8ff" fill-rule="evenodd"/>
          <path id="Path_34" data-name="Path 34" d="M46.755,49.666a7.251,7.251,0,1,0,6.156,8.2,7.256,7.256,0,0,0-6.156-8.2Z" fill="#fff" stroke="#000" stroke-linecap="round" stroke-linejoin="round" stroke-miterlimit="1.5" stroke-width="0.86" fill-rule="evenodd"/>
          <path id="Path_35" data-name="Path 35" d="M21.2,51.789a7.251,7.251,0,1,0,6.157,8.2,7.255,7.255,0,0,0-6.157-8.2Z" fill="#fff" stroke="#000" stroke-linecap="round" stroke-linejoin="round" stroke-miterlimit="1.5" stroke-width="0.86" fill-rule="evenodd"/>
          <path id="Path_36" data-name="Path 36" d="M45.243,55.82a2.575,2.575,0,1,0,2.186,2.913A2.575,2.575,0,0,0,45.243,55.82Z" fill-rule="evenodd"/>
          <path id="Path_37" data-name="Path 37" d="M20.039,57.633a2.576,2.576,0,1,0,2.187,2.913,2.577,2.577,0,0,0-2.187-2.913Z" fill-rule="evenodd"/>
          <path id="Path_38" data-name="Path 38" d="M45.456,56.893a.723.723,0,1,0,.614.818A.724.724,0,0,0,45.456,56.893Z" fill="#fff" fill-rule="evenodd"/>
          <path id="Path_39" data-name="Path 39" d="M20.253,58.706a.723.723,0,1,0,.614.818A.724.724,0,0,0,20.253,58.706Z" fill="#fff" fill-rule="evenodd"/>
        </g>
        <g id="Group_4" data-name="Group 4">
          <path id="Path_40" data-name="Path 40" d="M33.252,87.374a2.122,2.122,0,0,0-2.494-1.636L8,90.368a2.081,2.081,0,0,0-1.623,2.474l3.306,15.6a2.123,2.123,0,0,0,2.494,1.636l22.76-4.63a2.082,2.082,0,0,0,1.624-2.474Z" fill="#a1a1a1" stroke="#000" stroke-linecap="round" stroke-linejoin="round" stroke-miterlimit="1.5" stroke-width="1.14" fill-rule="evenodd"/>
          <ellipse id="Ellipse_3" data-name="Ellipse 3" cx="4.585" cy="4.493" rx="4.585" ry="4.493" transform="translate(16.957 93.214)" fill="#a1a1a1" stroke="#e7e7e7" stroke-linecap="round" stroke-linejoin="round" stroke-miterlimit="1.5" stroke-width="1.14"/>
        </g>
        <path id="Path_41" data-name="Path 41" d="M23.8,92.149s-2.062-6.012-5.787-6.92-5.232,2.048-2.858,3.761,4.456,3.529,4.694,5.867S25.135,95.931,23.8,92.149Z" fill="#d6c295" stroke="#000" stroke-linecap="round" stroke-linejoin="round" stroke-miterlimit="1.5" stroke-width="0.86" fill-rule="evenodd"/>
        <circle id="Ellipse_4" data-name="Ellipse 4" cx="10.057" cy="10.057" r="10.057" transform="translate(10.046 48.893)" fill="none" stroke="#000" stroke-linecap="round" stroke-linejoin="round" stroke-miterlimit="1.5" stroke-width="0.86"/>
        <circle id="Ellipse_5" data-name="Ellipse 5" cx="10.057" cy="10.057" r="10.057" transform="translate(35.52 46.472)" fill="none" stroke="#000" stroke-linecap="round" stroke-linejoin="round" stroke-miterlimit="1.5" stroke-width="0.86"/>
        <path id="Path_42" data-name="Path 42" d="M30.333,56.9s2.651-3.631,5.187-.375" fill="none" stroke="#000" stroke-linecap="round" stroke-linejoin="round" stroke-miterlimit="1.5" stroke-width="0.86" fill-rule="evenodd"/>
        <g id="Group_7" data-name="Group 7" transform="translate(0 10)">
          <g id="Group_1" data-name="Group 1" transform="translate(61.101 31.521)">
            <rect id="Rectangle_1" data-name="Rectangle 1" width="74.295" height="47.95" transform="translate(1.411 14.133)" fill="#fff" stroke="#000" stroke-linecap="round" stroke-linejoin="round" stroke-miterlimit="1.5" stroke-width="0.86"/>
            <path id="Path_1" data-name="Path 1" d="M138.217,42.627a1.014,1.014,0,0,0-1.027-1H62.128a1.014,1.014,0,0,0-1.027,1v2a1.014,1.014,0,0,0,1.027,1H137.19a1.014,1.014,0,0,0,1.027-1Z" transform="translate(-61.101 -31.521)" fill="#cfcfcf" stroke="#000" stroke-linecap="round" stroke-linejoin="round" stroke-miterlimit="1.5" stroke-width="0.86" fill-rule="evenodd"/>
            <path id="Path_2" data-name="Path 2" d="M138.217,94.737a1.014,1.014,0,0,0-1.027-1H62.128a1.014,1.014,0,0,0-1.027,1v2a1.014,1.014,0,0,0,1.027,1H137.19a1.014,1.014,0,0,0,1.027-1Z" transform="translate(-61.101 -31.521)" fill="#cfcfcf" stroke="#000" stroke-linecap="round" stroke-linejoin="round" stroke-miterlimit="1.5" stroke-width="0.86" fill-rule="evenodd"/>
            <path id="Path_3" data-name="Path 3" d="M71.12,41.389s26.469-9.868,28.59-9.868S130.3,41.389,130.3,41.389" transform="translate(-61.101 -31.521)" fill="none" stroke="#000" stroke-linecap="round" stroke-linejoin="round" stroke-miterlimit="1.5" stroke-width="0.86" fill-rule="evenodd"/>
          </g>
          <text id="package_main_Import_github.com_ainsleyclark_logger_func_main_logger.Info_Hello_" data-name="package main

Import (
   github.com/ainsleyclark/logger
)

func main() {
    logger.Info(Hello!)
}" transform="translate(66 52)" fill="#707070" font-size="2.8" font-family="JetBrainsMono-Regular, JetBrains Mono"><tspan x="0" y="3">package main</tspan><tspan x="0" y="7"></tspan><tspan x="0" y="11">import (</tspan><tspan x="0" y="15" xml:space="preserve">   github.com/ainsleyclark/logger</tspan><tspan x="0" y="19">)</tspan><tspan x="0" y="23"></tspan><tspan x="0" y="27">func main() {</tspan><tspan x="0" y="31" xml:space="preserve">    logger.info(hello!)</tspan><tspan x="0" y="35">}</tspan></text>
        </g>
      </g>
    </g>
  </g>
</svg>
